<svg width="30" height="30" viewBox="0 0 30 30" fill="none" xmlns="http://www.w3.org/2000/svg">
<path fill-rule="evenodd" clip-rule="evenodd" d="M14.0625 8.125C14.0625 7.6075 14.4825 7.1875 15 7.1875C15.5175 7.1875 15.9375 7.6075 15.9375 8.125V21.875C15.9375 22.3925 15.5175 22.8125 15 22.8125C14.4825 22.8125 14.0625 22.3925 14.0625 21.875V8.125Z" fill="black"/>
<path fill-rule="evenodd" clip-rule="evenodd" d="M8.125 15.9375C7.6075 15.9375 7.1875 15.5175 7.1875 15C7.1875 14.4825 7.6075 14.0625 8.125 14.0625H21.875C22.3925 14.0625 22.8125 14.4825 22.8125 15C22.8125 15.5175 22.3925 15.9375 21.875 15.9375H8.125Z" fill="black"/>
<path fill-rule="evenodd" clip-rule="evenodd" d="M28.4375 7.5V22.5C28.4375 24.075 27.8125 25.585 26.6988 26.6988C25.585 27.8125 24.075 28.4375 22.5 28.4375H7.5C5.925 28.4375 4.415 27.8125 3.30125 26.6988C2.1875 25.585 1.5625 24.075 1.5625 22.5V7.5C1.5625 5.925 2.1875 4.415 3.30125 3.30125C4.415 2.1875 5.925 1.5625 7.5 1.5625H22.5C24.075 1.5625 25.585 2.1875 26.6988 3.30125C27.8125 4.415 28.4375 5.925 28.4375 7.5ZM26.5625 7.5C26.5625 6.4225 26.135 5.38875 25.3725 4.6275C24.6113 3.865 23.5775 3.4375 22.5 3.4375H7.5C6.4225 3.4375 5.38875 3.865 4.6275 4.6275C3.865 5.38875 3.4375 6.4225 3.4375 7.5V22.5C3.4375 23.5775 3.865 24.6113 4.6275 25.3725C5.38875 26.135 6.4225 26.5625 7.5 26.5625H22.5C23.5775 26.5625 24.6113 26.135 25.3725 25.3725C26.135 24.6113 26.5625 23.5775 26.5625 22.5V7.5Z" fill="black"/>
</svg>
