<svg width="40" height="40" viewBox="0 0 40 40" fill="none" xmlns="http://www.w3.org/2000/svg">
<g clip-path="url(#clip0_172_28)">
<path d="M38.4158 8.82584L20.2542 0.0581812C20.0932 -0.0194751 19.9057 -0.0194751 19.7448 0.0581812L1.58313 8.82584C1.38063 8.92357 1.25195 9.12865 1.25195 9.35349V30.6464C1.25195 30.8712 1.38063 31.0763 1.58313 31.174L19.7447 39.9417C19.8252 39.9805 19.9123 40 19.9995 40C20.0866 40 20.1737 39.9805 20.2542 39.9417L38.4158 31.174C38.6183 31.0763 38.747 30.8712 38.747 30.6464V9.35357C38.747 9.12857 38.6182 8.92365 38.4158 8.82584ZM19.9995 1.23654L36.8133 9.35349L31.9393 11.7065C31.9084 11.6829 31.8759 11.6612 31.8401 11.644L15.1405 3.58224L19.9995 1.23654ZM13.8172 4.24474L30.6066 12.3499L27.1679 14.01L10.3855 5.9081L13.8172 4.24474ZM30.9994 13.4615V19.5979L27.7874 21.1485V15.0121L30.9994 13.4615ZM37.5751 30.2787L20.5854 38.4804V18.4889L24.638 16.5325C24.9294 16.3918 25.0516 16.0415 24.9109 15.7501C24.7702 15.4587 24.4199 15.3364 24.1284 15.4772L19.9995 17.4705L18.3748 16.6861C18.0833 16.5453 17.733 16.6676 17.5923 16.959C17.4516 17.2504 17.5738 17.6008 17.8652 17.7415L19.4135 18.4889V38.4804L2.42383 30.2786V10.287L15.3613 16.5327C15.4434 16.5724 15.5302 16.5912 15.6156 16.5912C15.8334 16.5912 16.0427 16.4691 16.1437 16.2598C16.2844 15.9684 16.1622 15.6181 15.8708 15.4774L3.18563 9.35349L9.00633 6.54349L26.6074 15.0406C26.61 15.0442 26.6129 15.0474 26.6155 15.0509V22.0821C26.6155 22.2837 26.7192 22.4711 26.89 22.5784C26.9848 22.6379 27.093 22.668 27.2016 22.668C27.2884 22.668 27.3755 22.6487 27.4562 22.6097L31.8401 20.4934C32.0426 20.3957 32.1712 20.1907 32.1712 19.9658V12.8958L37.5751 10.2871V30.2787Z" fill="#FF9C00"/>
<path d="M7.25998 28.0062L4.59475 26.7196C4.30318 26.5787 3.95303 26.701 3.81232 26.9924C3.67162 27.2839 3.79381 27.6342 4.08521 27.7749L6.75045 29.0615C6.83256 29.1012 6.91935 29.1199 7.00475 29.1199C7.22256 29.1199 7.43178 28.9979 7.53279 28.7886C7.67357 28.4971 7.55139 28.147 7.25998 28.0062Z" fill="#FF9C00"/>
<path d="M9.71306 26.4096L4.5986 23.9405C4.30712 23.7998 3.95688 23.922 3.81618 24.2135C3.67556 24.5049 3.79774 24.8552 4.08915 24.9959L9.2036 27.4649C9.28571 27.5046 9.37251 27.5234 9.4579 27.5234C9.67571 27.5234 9.88493 27.4014 9.98595 27.1921C10.1266 26.9005 10.0045 26.5502 9.71306 26.4096Z" fill="#FF9C00"/>
</g>
<defs>
<clipPath id="clip0_172_28">
<rect width="40" height="40" fill="white"/>
</clipPath>
</defs>
</svg>
