<svg width="40" height="40" viewBox="0 0 40 40" fill="none" xmlns="http://www.w3.org/2000/svg">
<g clip-path="url(#clip0_172_75)">
<path d="M34.3432 31.0733C33.6654 31.0738 33.0026 30.8732 32.4388 30.497C31.875 30.1208 31.4354 29.5858 31.1756 28.9597C30.9159 28.3336 30.8477 27.6445 30.9796 26.9797C31.1115 26.3148 31.4377 25.704 31.9168 25.2245C32.396 24.745 33.0065 24.4184 33.6713 24.286C34.3361 24.1536 35.0252 24.2213 35.6515 24.4806C36.2778 24.7399 36.8131 25.1791 37.1897 25.7426C37.5664 26.3062 37.7674 26.9688 37.7674 27.6466C37.767 28.5549 37.4061 29.4258 36.7641 30.0683C36.1222 30.7107 35.2515 31.0722 34.3432 31.0733ZM34.3432 25.47C33.9126 25.4695 33.4915 25.5967 33.1333 25.8356C32.775 26.0745 32.4956 26.4142 32.3305 26.8119C32.1653 27.2096 32.1219 27.6474 32.2056 28.0698C32.2893 28.4921 32.4964 28.8802 32.8007 29.1849C33.105 29.4896 33.4929 29.6971 33.9152 29.7813C34.3375 29.8655 34.7752 29.8225 35.1731 29.6579C35.571 29.4932 35.9111 29.2142 36.1504 28.8562C36.3897 28.4982 36.5174 28.0772 36.5174 27.6466C36.5172 27.0698 36.2881 26.5167 35.8805 26.1086C35.4729 25.7005 34.92 25.4709 34.3432 25.47Z" fill="#FF9C00"/>
<path d="M16.2855 31.0733C15.6076 31.074 14.9448 30.8736 14.3808 30.4974C13.8169 30.1213 13.3771 29.5864 13.1173 28.9603C12.8574 28.3342 12.7891 27.6451 12.9209 26.9802C13.0527 26.3152 13.3788 25.7044 13.8579 25.2248C14.337 24.7452 14.9476 24.4185 15.6124 24.2861C16.2772 24.1536 16.9664 24.2212 17.5927 24.4805C18.219 24.7398 18.7544 25.179 19.1311 25.7425C19.5077 26.3061 19.7088 26.9688 19.7088 27.6466C19.7081 28.5547 19.3474 29.4254 18.7056 30.0677C18.0638 30.7101 17.1935 31.0718 16.2855 31.0733ZM16.2855 25.47C15.8548 25.4693 15.4337 25.5964 15.0753 25.8352C14.7169 26.074 14.4374 26.4137 14.2721 26.8114C14.1069 27.209 14.0633 27.6468 14.1469 28.0692C14.2305 28.4917 14.4375 28.8798 14.7418 29.1846C15.0461 29.4893 15.4339 29.697 15.8563 29.7812C16.2786 29.8655 16.7164 29.8226 17.1143 29.6579C17.5123 29.4933 17.8524 29.2143 18.0917 28.8563C18.3311 28.4983 18.4588 28.0773 18.4588 27.6466C18.4584 27.0701 18.2294 26.5172 17.822 26.1092C17.4146 25.7012 16.862 25.4713 16.2855 25.47Z" fill="#FF9C00"/>
<path d="M38.8516 28.2717H37.1425C36.9767 28.2717 36.8177 28.2058 36.7005 28.0886C36.5833 27.9714 36.5175 27.8124 36.5175 27.6467C36.5175 27.4809 36.5833 27.322 36.7005 27.2047C36.8177 27.0875 36.9767 27.0217 37.1425 27.0217H38.675V23.7075C38.6746 23.2594 38.5598 22.8189 38.3416 22.4275L34.9583 16.3617C34.9294 16.3099 34.8872 16.2668 34.8361 16.2368C34.785 16.2067 34.7268 16.1909 34.6675 16.1909H30.0566V27.0242H31.545C31.7107 27.0242 31.8697 27.09 31.9869 27.2072C32.1041 27.3245 32.17 27.4834 32.17 27.6492C32.17 27.815 32.1041 27.9739 31.9869 28.0911C31.8697 28.2083 31.7107 28.2742 31.545 28.2742H29.4316C29.2659 28.2742 29.1069 28.2083 28.9897 28.0911C28.8725 27.9739 28.8066 27.815 28.8066 27.6492V15.5659C28.8066 15.4001 28.8725 15.2411 28.9897 15.1239C29.1069 15.0067 29.2659 14.9409 29.4316 14.9409H34.6675C34.9494 14.9407 35.2263 15.0159 35.4695 15.1586C35.7127 15.3013 35.9134 15.5063 36.0508 15.7525L39.4333 21.8192C39.7549 22.3966 39.9238 23.0466 39.9241 23.7075V27.1992C39.9237 27.4835 39.8106 27.756 39.6095 27.9571C39.4085 28.1581 39.1359 28.2712 38.8516 28.2717Z" fill="#FF9C00"/>
<path d="M13.4866 28.2717H7.49414C7.32838 28.2717 7.16941 28.2058 7.0522 28.0886C6.93499 27.9714 6.86914 27.8125 6.86914 27.6467V22.84C6.86914 22.6743 6.93499 22.5153 7.0522 22.3981C7.16941 22.2809 7.32838 22.215 7.49414 22.215C7.6599 22.215 7.81887 22.2809 7.93608 22.3981C8.05329 22.5153 8.11914 22.6743 8.11914 22.84V27.0217H13.4866C13.6524 27.0217 13.8114 27.0875 13.9286 27.2048C14.0458 27.322 14.1116 27.4809 14.1116 27.6467C14.1116 27.8125 14.0458 27.9714 13.9286 28.0886C13.8114 28.2058 13.6524 28.2717 13.4866 28.2717Z" fill="#FF9C00"/>
<path d="M7.49414 20.6225C7.32838 20.6225 7.16941 20.5567 7.0522 20.4395C6.93499 20.3222 6.86914 20.1633 6.86914 19.9975V15.8008C6.86914 15.6351 6.93499 15.4761 7.0522 15.3589C7.16941 15.2417 7.32838 15.1758 7.49414 15.1758C7.6599 15.1758 7.81887 15.2417 7.93608 15.3589C8.05329 15.4761 8.11914 15.6351 8.11914 15.8008V20C8.11848 20.1653 8.05234 20.3237 7.9352 20.4403C7.81806 20.557 7.65947 20.6225 7.49414 20.6225Z" fill="#FF9C00"/>
<path d="M29.4316 28.2717H19.0841C18.9184 28.2717 18.7594 28.2058 18.6422 28.0886C18.525 27.9714 18.4591 27.8124 18.4591 27.6467C18.4591 27.4809 18.525 27.3219 18.6422 27.2047C18.7594 27.0875 18.9184 27.0217 19.0841 27.0217H28.8066V10.6708H8.11914V13.245C8.11914 13.4108 8.05329 13.5697 7.93608 13.6869C7.81887 13.8042 7.6599 13.87 7.49414 13.87C7.32838 13.87 7.16941 13.8042 7.0522 13.6869C6.93499 13.5697 6.86914 13.4108 6.86914 13.245V10.5558C6.86958 10.2548 6.98942 9.96625 7.20236 9.75346C7.4153 9.54068 7.70394 9.42106 8.00497 9.42084H28.9216C29.2225 9.42128 29.511 9.541 29.7237 9.75376C29.9365 9.96652 30.0562 10.255 30.0566 10.5558V27.6467C30.0566 27.8124 29.9908 27.9714 29.8736 28.0886C29.7564 28.2058 29.5974 28.2717 29.4316 28.2717Z" fill="#FF9C00"/>
<path d="M9.96375 23.465H2.03125C1.86549 23.465 1.70652 23.3992 1.58931 23.282C1.4721 23.1648 1.40625 23.0058 1.40625 22.84C1.40625 22.6743 1.4721 22.5153 1.58931 22.3981C1.70652 22.2809 1.86549 22.215 2.03125 22.215H9.96375C10.1295 22.215 10.2885 22.2809 10.4057 22.3981C10.5229 22.5153 10.5887 22.6743 10.5887 22.84C10.5887 23.0058 10.5229 23.1648 10.4057 23.282C10.2885 23.3992 10.1295 23.465 9.96375 23.465Z" fill="#FF9C00"/>
<path d="M16.286 20.6225H5.2168C5.05104 20.6225 4.89207 20.5566 4.77486 20.4394C4.65765 20.3222 4.5918 20.1633 4.5918 19.9975C4.5918 19.8317 4.65765 19.6728 4.77486 19.5556C4.89207 19.4383 5.05104 19.3725 5.2168 19.3725H16.286C16.4517 19.3725 16.6107 19.4383 16.7279 19.5556C16.8451 19.6728 16.911 19.8317 16.911 19.9975C16.911 20.1633 16.8451 20.3222 16.7279 20.4394C16.6107 20.5566 16.4517 20.6225 16.286 20.6225Z" fill="#FF9C00"/>
<path d="M4.87133 17.3225H0.548828C0.383068 17.3225 0.224097 17.2567 0.106886 17.1395C-0.0103239 17.0222 -0.0761719 16.8633 -0.0761719 16.6975C-0.0761719 16.5317 -0.0103239 16.3728 0.106886 16.2556C0.224097 16.1384 0.383068 16.0725 0.548828 16.0725H4.87133C5.03709 16.0725 5.19606 16.1384 5.31327 16.2556C5.43048 16.3728 5.49633 16.5317 5.49633 16.6975C5.49633 16.8633 5.43048 17.0222 5.31327 17.1395C5.19606 17.2567 5.03709 17.3225 4.87133 17.3225Z" fill="#FF9C00"/>
<path d="M11.8019 13.87H4.17188C4.00611 13.87 3.84714 13.8041 3.72993 13.6869C3.61272 13.5697 3.54688 13.4108 3.54688 13.245C3.54688 13.0792 3.61272 12.9203 3.72993 12.8031C3.84714 12.6858 4.00611 12.62 4.17188 12.62H11.8019C11.9676 12.62 12.1266 12.6858 12.2438 12.8031C12.361 12.9203 12.4269 13.0792 12.4269 13.245C12.4269 13.4108 12.361 13.5697 12.2438 13.6869C12.1266 13.8041 11.9676 13.87 11.8019 13.87Z" fill="#FF9C00"/>
</g>
<defs>
<clipPath id="clip0_172_75">
<rect width="40" height="40" fill="white"/>
</clipPath>
</defs>
</svg>
