<svg width="40" height="40" viewBox="0 0 40 40" fill="none" xmlns="http://www.w3.org/2000/svg">
<path d="M37.8723 10.5046L20.3723 1.75456C20.1377 1.63748 19.861 1.63748 19.6269 1.75456L2.12685 10.5046C1.84435 10.6458 1.66602 10.9341 1.66602 11.25V28.75C1.66602 29.0658 1.84435 29.3541 2.12643 29.4954L19.6264 38.2454C19.7439 38.3041 19.8714 38.3333 19.9993 38.3333C20.1273 38.3333 20.2548 38.3041 20.3723 38.2454L37.8723 29.4954C38.1544 29.3541 38.3327 29.0658 38.3327 28.75V11.25C38.3327 10.9341 38.1544 10.6458 37.8723 10.5046ZM19.9993 3.43164L35.636 11.25L32.291 12.9225L16.6548 5.10414L19.9993 3.43164ZM25.6243 16.2558L9.98768 8.43748L14.791 6.03581L30.4277 13.8541L25.6243 16.2558ZM26.2493 17.8066L31.2493 15.3066V21.5054L29.6502 20.3633C29.4689 20.2337 29.2423 20.1825 29.0227 20.2204C28.8031 20.2591 28.6077 20.3837 28.4806 20.5671L26.2493 23.7908V17.8066ZM8.12435 9.36914L23.7606 17.1875L19.9993 19.0683L4.36268 11.25L8.12435 9.36914ZM3.33268 12.5983L19.166 20.515V36.1512L3.33268 28.2346V12.5983ZM20.8327 36.1516V20.515L24.5827 18.64V26.4583C24.5827 26.8229 24.8193 27.145 25.1673 27.2537C25.2498 27.2796 25.3331 27.2916 25.416 27.2916C25.6844 27.2916 25.9427 27.1616 26.1014 26.9329L29.3702 22.2116L31.5989 23.8033C31.8531 23.9846 32.1873 24.0091 32.4643 23.8658C32.7414 23.7233 32.916 23.4371 32.916 23.125V14.4733L36.666 12.5983V28.2346L20.8327 36.1516Z" fill="black"/>
</svg>
