<svg width="40" height="40" viewBox="0 0 40 40" fill="none" xmlns="http://www.w3.org/2000/svg">
<g clip-path="url(#clip0_172_53)">
<path d="M28.9277 17.4019L34.0415 18.5707" stroke="#FF9C00" stroke-width="1.2" stroke-miterlimit="10" stroke-linecap="round" stroke-linejoin="round"/>
<path d="M5.95703 18.5707L11.0609 17.4041" stroke="#FF9C00" stroke-width="1.2" stroke-miterlimit="10" stroke-linecap="round" stroke-linejoin="round"/>
<path d="M14.1992 12.9974L15.6401 12.788C15.9657 12.7407 16.2473 12.5361 16.3929 12.241L19.1027 6.75057C19.4695 6.00746 20.5291 6.00746 20.896 6.75057L23.6057 12.2411C23.7513 12.5361 24.0328 12.7407 24.3585 12.7881L30.4176 13.6685C31.2377 13.7877 31.5652 14.7955 30.9717 15.374L26.5873 19.6478C26.4011 19.8292 26.2949 20.0738 26.2859 20.3285" stroke="#FF9C00" stroke-width="1.2" stroke-miterlimit="10" stroke-linecap="round" stroke-linejoin="round"/>
<path d="M13.7137 20.3361C13.7066 20.0787 13.6001 19.831 13.4121 19.6477L9.02765 15.3739C8.43423 14.7955 8.76166 13.7877 9.58176 13.6685L11.5328 13.3849" stroke="#FF9C00" stroke-width="1.2" stroke-miterlimit="10" stroke-linecap="round" stroke-linejoin="round"/>
<path d="M10.0438 37.1583L6.58063 36.3668C6.21576 36.2834 5.95703 35.9588 5.95703 35.5845V24.9161" stroke="#FF9C00" stroke-width="1.2" stroke-miterlimit="10" stroke-linecap="round" stroke-linejoin="round"/>
<path d="M34.0416 24.9411V35.5845C34.0416 35.9588 33.7829 36.2834 33.418 36.3668L20.1733 39.3942C20.0586 39.4204 19.9396 39.4204 19.825 39.3942L12.7051 37.7668" stroke="#FF9C00" stroke-width="1.2" stroke-miterlimit="10" stroke-linecap="round" stroke-linejoin="round"/>
<path d="M20 32.7858V39.3167" stroke="#FF9C00" stroke-width="1.2" stroke-miterlimit="10" stroke-linecap="round" stroke-linejoin="round"/>
<path d="M20 21.7805V30.0501" stroke="#FF9C00" stroke-width="1.2" stroke-miterlimit="10" stroke-linecap="round" stroke-linejoin="round"/>
<path d="M30.7197 25.659L39.2176 23.7464L34.042 18.5707L19.9994 21.7804L5.9569 18.5707L0.78125 23.7464L14.8639 26.916L19.9994 21.7804" stroke="#FF9C00" stroke-width="1.2" stroke-miterlimit="10" stroke-linecap="round" stroke-linejoin="round"/>
<path d="M20 21.7805L25.1356 26.916L28.0657 26.2565" stroke="#FF9C00" stroke-width="1.2" stroke-miterlimit="10" stroke-linecap="round" stroke-linejoin="round"/>
<path d="M20 0.586243V2.99355" stroke="#FF9C00" stroke-width="1.2" stroke-miterlimit="10" stroke-linecap="round" stroke-linejoin="round"/>
<path d="M20 0.586243V2.99355" stroke="#FF9C00" stroke-width="1.2" stroke-miterlimit="10" stroke-linecap="round" stroke-linejoin="round"/>
<path d="M26.4907 5.68243L24.9434 7.52657" stroke="#FF9C00" stroke-width="1.2" stroke-miterlimit="10" stroke-linecap="round" stroke-linejoin="round"/>
<path d="M26.4907 5.68243L24.9434 7.52657" stroke="#FF9C00" stroke-width="1.2" stroke-miterlimit="10" stroke-linecap="round" stroke-linejoin="round"/>
<path d="M33.6038 8.33838L31.7598 9.8858" stroke="#FF9C00" stroke-width="1.2" stroke-miterlimit="10" stroke-linecap="round" stroke-linejoin="round"/>
<path d="M33.6038 8.33838L31.7598 9.8858" stroke="#FF9C00" stroke-width="1.2" stroke-miterlimit="10" stroke-linecap="round" stroke-linejoin="round"/>
<path d="M13.5078 5.68243L15.0552 7.52657" stroke="#FF9C00" stroke-width="1.2" stroke-miterlimit="10" stroke-linecap="round" stroke-linejoin="round"/>
<path d="M13.5078 5.68243L15.0552 7.52657" stroke="#FF9C00" stroke-width="1.2" stroke-miterlimit="10" stroke-linecap="round" stroke-linejoin="round"/>
<path d="M6.39453 8.33838L8.23859 9.8858" stroke="#FF9C00" stroke-width="1.2" stroke-miterlimit="10" stroke-linecap="round" stroke-linejoin="round"/>
<path d="M6.39453 8.33838L8.23859 9.8858" stroke="#FF9C00" stroke-width="1.2" stroke-miterlimit="10" stroke-linecap="round" stroke-linejoin="round"/>
</g>
<defs>
<clipPath id="clip0_172_53">
<rect width="40" height="40" fill="white"/>
</clipPath>
</defs>
</svg>
