<svg width="40" height="40" viewBox="0 0 40 40" fill="none" xmlns="http://www.w3.org/2000/svg">
<g clip-path="url(#clip0_172_86)">
<path d="M37.2822 20.897C35.4441 19.0672 33.3192 20.7798 33.3192 20.7798V11.1469C33.3192 10.8234 33.057 10.5609 32.7335 10.5609C32.4097 10.5609 32.1476 10.8234 32.1476 11.1469V21.6041C32.1476 21.6041 29.3537 23.8066 28.1528 24.3449V7.00044C28.1528 6.19416 28.8086 5.53834 29.6149 5.53834H30.6855C31.4918 5.53834 32.1476 6.19416 32.1476 7.00044V8.74819C32.1476 9.07199 32.4097 9.33414 32.7335 9.33414C33.057 9.33414 33.3192 9.07199 33.3192 8.74819V7.00044C33.3192 5.5481 32.1378 4.36676 30.6855 4.36676H29.6149C28.1626 4.36676 26.9809 5.5481 26.9809 7.00044V24.8094C26.6315 24.9073 26.2729 24.9739 25.9085 25.009V12.6563C25.9085 11.1966 24.7211 10.0092 23.2617 10.0092H22.2171C20.7578 10.0092 19.5703 11.1966 19.5703 12.6563V18.6262L18.4976 19.1956V17.2089C18.4976 15.8948 17.4286 14.8258 16.1148 14.8258H14.5425C13.2284 14.8258 12.1597 15.8948 12.1597 17.2089V22.5599L10.2465 23.5752L4.87418 25.1106C3.93942 25.3776 3.15877 25.9898 2.67659 26.8339C2.19411 27.6784 2.06319 28.6616 2.30794 29.6025L2.90883 31.9145C2.99001 32.2276 3.30984 32.4153 3.62325 32.3342C3.93637 32.2527 4.12436 31.9328 4.04287 31.6194L3.44198 29.3077C3.09347 27.9668 3.86404 26.6179 5.19645 26.2373L10.1083 24.8335L13.8 34.6865C14.0472 35.3463 14.0081 37.2286 12.0553 37.9223L8.34344 38.7655C7.04979 39.059 5.77506 38.2836 5.4412 36.9994L4.68771 34.0999C4.60623 33.7868 4.28641 33.5988 3.97329 33.68C3.65988 33.7615 3.47219 34.0813 3.55337 34.3947L4.30716 37.2945C4.73074 38.9235 6.1779 39.9999 7.78893 39.9999C8.97271 39.9999 12.315 39.0648 12.315 39.0648C13.3322 38.8341 14.1995 38.1749 14.6942 37.257C15.1025 36.4995 15.2237 35.6279 15.0485 34.7975L27.8904 31.6536C28.9524 31.3933 29.9607 30.8888 30.8054 30.1945L37.0549 25.0596C38.9601 23.3699 37.8425 21.4546 37.2822 20.897ZM22.2171 11.1811H23.2617C24.075 11.1811 24.7367 11.843 24.7367 12.6563V25.0383L21.0394 25.0367C20.6998 25.0337 20.9348 24.8094 20.9534 24.7941L22.0181 23.9317C23.0115 23.1269 23.6603 22.0082 23.9463 20.6059C24.1278 19.7163 23.7885 18.8258 23.0612 18.2819C22.3819 17.7741 21.5082 17.6765 20.7422 18.0122V12.6563C20.7422 11.843 21.4038 11.1811 22.2171 11.1811ZM13.3316 17.2089C13.3316 16.5412 13.8748 15.9977 14.5425 15.9977H16.1148C16.7825 15.9977 17.326 16.5412 17.326 17.2089V19.8176L13.3313 21.938V17.2089H13.3316ZM36.3111 24.1545L30.0614 29.2894C29.3516 29.8729 28.5044 30.2968 27.6117 30.5153L14.6753 33.6827L11.1962 24.3983L21.1298 19.1255C21.5335 18.9109 21.9934 18.9466 22.3593 19.2204C22.7252 19.4941 22.8894 19.9244 22.7982 20.3718C22.5678 21.5007 22.0572 22.3921 21.2805 23.021L20.2158 23.8838C19.7794 24.2372 19.6185 24.8076 19.8059 25.337C19.9933 25.8662 20.4773 26.2086 21.0388 26.2086L25.308 26.2105H25.311C26.8308 26.2105 28.2914 25.7484 29.5347 24.8741L34.3058 21.519C34.9738 21.049 35.8732 21.132 36.4439 21.7161C36.7726 22.0518 37.4159 23.0494 36.3111 24.1545Z" fill="#FF9C00"/>
<path d="M11.5562 35.0618C11.5562 33.7889 10.5207 32.7532 9.24782 32.7532C7.97492 32.7532 6.93945 33.7889 6.93945 35.0618C6.93945 36.3344 7.97492 37.3702 9.24782 37.3702C10.5207 37.3702 11.5562 36.3344 11.5562 35.0618ZM8.11134 35.0618C8.11134 34.435 8.62098 33.9251 9.24782 33.9251C9.87435 33.9251 10.3843 34.435 10.3843 35.0618C10.3843 35.6884 9.87465 36.1983 9.24782 36.1983C8.62098 36.1983 8.11134 35.6884 8.11134 35.0618Z" fill="#FF9C00"/>
<path d="M5.03398 18.397L13.5515 9.8139L15.4674 10.8048C16.1537 11.1597 16.989 11.0383 17.5457 10.5024L22.1819 6.03946C22.1819 6.03946 22.0543 8.33165 23.9846 8.33165C24.9783 8.33165 25.787 7.52293 25.787 6.52897V1.80238C25.787 1.79689 25.7867 1.79109 25.7867 1.78529C25.7803 0.552066 24.8785 0 23.9846 0H19.2992C18.3052 0 17.4968 0.808721 17.4968 1.80238C17.4968 3.78359 19.5131 3.60476 19.5131 3.60476L15.9761 7.00932L14.0324 6.00406C13.3296 5.64029 12.4828 5.77365 11.9249 6.33518L2.47537 15.8576C1.7753 16.5632 1.77957 17.7067 2.48514 18.4068C2.82511 18.744 3.986 19.445 5.03398 18.397ZM3.30698 16.6831L12.7565 7.16069C12.8786 7.038 13.0745 6.82316 13.4941 7.04502L15.8107 8.24315C16.0338 8.35851 16.3054 8.31914 16.4864 8.14488L21.3729 3.44118C21.545 3.27547 21.5993 3.02156 21.5099 2.8C21.4205 2.57814 21.2056 2.43318 20.9664 2.43318H19.2992C18.9516 2.43318 18.6687 2.15028 18.6687 1.80238C18.6687 1.45478 18.9516 1.17188 19.2992 1.17188H23.9846C24.157 1.17188 24.6148 1.17188 24.6148 1.79872C24.6148 1.8039 24.6151 1.80909 24.6151 1.81459V6.52897C24.6151 6.87657 24.3322 7.15947 23.9846 7.15947C23.6367 7.15947 23.3538 6.87657 23.3538 6.52897V4.6622C23.3538 4.42721 23.2134 4.21481 22.9973 4.12295C22.7813 4.03079 22.531 4.07717 22.3617 4.24014L16.733 9.65826C16.5383 9.84564 16.2459 9.88836 16.006 9.76416L13.708 8.57549C13.4807 8.458 13.2033 8.50164 13.0229 8.68322L4.20237 17.5715C3.81785 17.956 3.42936 17.693 3.31034 17.5749C3.06376 17.3298 3.06223 16.9297 3.30698 16.6831Z" fill="#FF9C00"/>
</g>
<defs>
<clipPath id="clip0_172_86">
<rect width="40" height="40" fill="white"/>
</clipPath>
</defs>
</svg>
